<svg xmlns="http://www.w3.org/2000/svg" width="32" height="32" viewBox="0 0 32 32">
  <g id="list_bookmark_off_icon" transform="translate(-398 -28)">
    <rect id="사각형_221" data-name="사각형 221" width="32" height="32" transform="translate(398 28)" fill="#f18b8b" opacity="0"/>
    <g id="다각형_3" data-name="다각형 3" transform="translate(400 30)" fill="none">
      <path d="M12.789,2.828a2,2,0,0,1,3.422,0l2.934,4.849a2,2,0,0,0,1.235.907l5.5,1.346a2,2,0,0,1,1.056,3.228l-3.7,4.4A2,2,0,0,0,22.774,19l.439,5.738a2,2,0,0,1-2.767,2l-5.172-2.168a2,2,0,0,0-1.546,0L8.555,26.735a2,2,0,0,1-2.767-2L6.226,19a2,2,0,0,0-.462-1.438l-3.7-4.4A2,2,0,0,1,3.124,9.93l5.5-1.346a2,2,0,0,0,1.235-.907Z" stroke="none"/>
      <path d="M 14.5 2.863109588623047 C 14.33051013946533 2.863109588623047 13.90783977508545 2.910099029541016 13.64443969726562 3.345399856567383 L 10.71006011962891 8.194589614868164 C 10.29459953308105 8.881170272827148 9.636529922485352 9.364419937133789 8.857080459594727 9.555318832397461 L 3.361709594726562 10.90124893188477 C 2.874530792236328 11.02056884765625 2.701099395751953 11.40283012390137 2.649150848388672 11.56164932250977 C 2.597200393676758 11.72044944763184 2.511190414428711 12.13129997253418 2.833660125732422 12.51546859741211 L 6.52992057800293 16.91891860961914 C 7.037250518798828 17.52331924438477 7.283529281616211 18.28948974609375 7.223400115966797 19.07629013061523 L 6.784849166870117 24.81474876403809 C 6.757289886474609 25.17544937133789 6.910379409790039 25.42264938354492 7.043659210205078 25.56649971008301 C 7.236230850219727 25.77434921264648 7.504470825195312 25.89355850219727 7.779600143432617 25.89355850219727 C 7.910480499267578 25.89355850219727 8.041339874267578 25.86651992797852 8.168539047241211 25.81319999694824 L 13.34020042419434 23.64527893066406 C 13.70944023132324 23.49049949645996 14.09965038299561 23.41201972961426 14.5 23.41201972961426 C 14.90034961700439 23.41201972961426 15.29055976867676 23.49049949645996 15.65979957580566 23.64527893066406 L 20.83145904541016 25.81319999694824 C 20.95866012573242 25.86651992797852 21.08951950073242 25.89355850219727 21.22039985656738 25.89355850219727 C 21.49549102783203 25.89355850219727 21.76371002197266 25.77433967590332 21.9563102722168 25.56646919250488 C 22.089599609375 25.42258834838867 22.24271011352539 25.17538833618164 22.21514892578125 24.81474876403809 L 21.7765998840332 19.07629013061523 C 21.71646881103516 18.28948974609375 21.96274948120117 17.52331924438477 22.47007942199707 16.91891860961914 L 26.16633987426758 12.51546859741211 C 26.48880958557129 12.13129997253418 26.40279960632324 11.72044944763184 26.35084915161133 11.5616397857666 C 26.29890060424805 11.40283012390137 26.12546920776367 11.02056884765625 25.63829040527344 10.90124893188477 L 20.14291954040527 9.555318832397461 C 19.36347007751465 9.364419937133789 18.70540046691895 8.881170272827148 18.28993988037109 8.194599151611328 L 15.35554027557373 3.345388412475586 C 15.09214973449707 2.910099029541016 14.66948986053467 2.863109588623047 14.5 2.863109588623047 M 14.49999904632568 1.86311149597168 C 15.16098976135254 1.86311149597168 15.82198047637939 2.184635162353516 16.21109962463379 2.827678680419922 L 19.14548873901367 7.6768798828125 C 19.42047119140625 8.13129997253418 19.86491966247559 8.457679748535156 20.38080978393555 8.584030151367188 L 25.87618064880371 9.929960250854492 C 27.31557083129883 10.28249931335449 27.88504028320312 12.02332878112793 26.93227005004883 13.1583890914917 L 23.23600959777832 17.56184005737305 C 22.89979934692383 17.96237945556641 22.73384094238281 18.47866058349609 22.77368927001953 19.00008964538574 L 23.21224021911621 24.73854827880859 C 23.32616996765137 26.22933959960938 21.82373428344727 27.31346893310547 20.44486045837402 26.73544883728027 L 15.27320003509521 24.56752967834473 C 14.77858066558838 24.36018943786621 14.22141933441162 24.36018943786621 13.72679996490479 24.56752967834473 L 8.555139541625977 26.73544883728027 C 7.17626953125 27.31346702575684 5.673830032348633 26.22934150695801 5.787759780883789 24.73854827880859 L 6.226310729980469 19.00008964538574 C 6.266159057617188 18.47866821289062 6.100200653076172 17.96237945556641 5.76399040222168 17.56184005737305 L 2.067729949951172 13.1583890914917 C 1.114959716796875 12.02334022521973 1.684419631958008 10.28249931335449 3.123819351196289 9.929960250854492 L 8.619190216064453 8.584030151367188 C 9.135080337524414 8.457679748535156 9.579530715942383 8.13129997253418 9.854509353637695 7.6768798828125 L 12.78889083862305 2.827678680419922 C 13.17801475524902 2.184635162353516 13.83900737762451 1.86311149597168 14.49999904632568 1.86311149597168 Z" stroke="none" fill="#ff972e"/>
    </g>
  </g>
</svg>
