<svg xmlns="http://www.w3.org/2000/svg" width="32" height="32" viewBox="0 0 32 32">
  <g id="list_bookmark_on_icon" transform="translate(-398 -28)">
    <rect id="사각형_221" data-name="사각형 221" width="32" height="32" transform="translate(398 28)" fill="#f18b8b" opacity="0"/>
    <g id="다각형_3" data-name="다각형 3" transform="translate(400 30)" fill="#ffed50">
      <path d="M 21.22035980224609 26.39355850219727 C 21.0228099822998 26.39356994628906 20.82692909240723 26.35345840454102 20.63816070556641 26.27433013916016 L 15.4665002822876 24.10640907287598 C 15.15880966186523 23.97741889953613 14.8336296081543 23.91202926635742 14.5 23.91202926635742 C 14.1663703918457 23.91202926635742 13.84119033813477 23.97741889953613 13.5334997177124 24.10640907287598 L 8.36184024810791 26.27433013916016 C 8.173110008239746 26.35343933105469 7.97721004486084 26.39355850219727 7.779600143432617 26.39355850219727 C 7.365690231323242 26.39355850219727 6.963769912719727 26.21596908569336 6.6768798828125 25.90631866455078 C 6.39277982711792 25.59967994689941 6.254069805145264 25.19847869873047 6.286310195922852 24.77664947509766 L 6.724860191345215 19.03818893432617 C 6.774970054626465 18.38251876831055 6.569729804992676 17.74404907226562 6.146959781646729 17.24037933349609 L 2.450700044631958 12.83692932128906 C 2.115119934082031 12.4371395111084 2.011660099029541 11.90228939056396 2.173939943313599 11.40618896484375 C 2.336220026016235 10.91008949279785 2.735780000686646 10.53977966308594 3.242769956588745 10.41560935974121 L 8.738129615783691 9.069679260253906 C 9.387680053710938 8.910589218139648 9.936079978942871 8.507879257202148 10.2822904586792 7.935729503631592 L 13.21667957305908 3.086539268493652 C 13.49079036712646 2.633549451828003 13.97052955627441 2.363109350204468 14.5 2.363109350204468 C 15.02947044372559 2.363109350204468 15.50920963287354 2.633549451828003 15.78332042694092 3.086539268493652 L 18.71771049499512 7.935739517211914 C 19.06393051147461 8.507889747619629 19.61231994628906 8.910589218139648 20.26186943054199 9.069679260253906 L 25.75724029541016 10.41560935974121 C 26.26421928405762 10.53977966308594 26.66378974914551 10.91008949279785 26.82607078552246 11.40618896484375 C 26.98834991455078 11.90227890014648 26.88488960266113 12.4371395111084 26.5492992401123 12.83692932128906 L 22.85304069519043 17.24037933349609 C 22.43026924133301 17.74404907226562 22.22503089904785 18.38251876831055 22.2751407623291 19.03818893432617 L 22.71368980407715 24.77664947509766 C 22.74592018127441 25.19839859008789 22.60721969604492 25.59953880310059 22.32313919067383 25.90618896484375 C 22.03623008728027 26.21588897705078 21.63427925109863 26.39352989196777 21.22035980224609 26.39355850219727 Z" stroke="none"/>
      <path d="M 14.5 2.863109588623047 C 14.33051013946533 2.863109588623047 13.90783977508545 2.910099029541016 13.64443969726562 3.345399856567383 L 10.71006011962891 8.194589614868164 C 10.29459953308105 8.881170272827148 9.636529922485352 9.364419937133789 8.857080459594727 9.555318832397461 L 3.361709594726562 10.90124893188477 C 2.874530792236328 11.02056884765625 2.701099395751953 11.40283012390137 2.649150848388672 11.56164932250977 C 2.597200393676758 11.72044944763184 2.511190414428711 12.13129997253418 2.833660125732422 12.51546859741211 L 6.52992057800293 16.91891860961914 C 7.037250518798828 17.52331924438477 7.283529281616211 18.28948974609375 7.223400115966797 19.07629013061523 L 6.784849166870117 24.81474876403809 C 6.757289886474609 25.17544937133789 6.910379409790039 25.42264938354492 7.043659210205078 25.56649971008301 C 7.236230850219727 25.77434921264648 7.504470825195312 25.89355850219727 7.779600143432617 25.89355850219727 C 7.910480499267578 25.89355850219727 8.041339874267578 25.86651992797852 8.168539047241211 25.81319999694824 L 13.34020042419434 23.64527893066406 C 13.70944023132324 23.49049949645996 14.09965038299561 23.41201972961426 14.5 23.41201972961426 C 14.90034961700439 23.41201972961426 15.29055976867676 23.49049949645996 15.65979957580566 23.64527893066406 L 20.83145904541016 25.81319999694824 C 20.95866012573242 25.86651992797852 21.08951950073242 25.89355850219727 21.22039985656738 25.89355850219727 C 21.49549102783203 25.89355850219727 21.76371002197266 25.77433967590332 21.9563102722168 25.56646919250488 C 22.089599609375 25.42258834838867 22.24271011352539 25.17538833618164 22.21514892578125 24.81474876403809 L 21.7765998840332 19.07629013061523 C 21.71646881103516 18.28948974609375 21.96274948120117 17.52331924438477 22.47007942199707 16.91891860961914 L 26.16633987426758 12.51546859741211 C 26.48880958557129 12.13129997253418 26.40279960632324 11.72044944763184 26.35084915161133 11.5616397857666 C 26.29890060424805 11.40283012390137 26.12546920776367 11.02056884765625 25.63829040527344 10.90124893188477 L 20.14291954040527 9.555318832397461 C 19.36347007751465 9.364419937133789 18.70540046691895 8.881170272827148 18.28993988037109 8.194599151611328 L 15.35554027557373 3.345388412475586 C 15.09214973449707 2.910099029541016 14.66948986053467 2.863109588623047 14.5 2.863109588623047 M 14.49999904632568 1.86311149597168 C 15.16098976135254 1.86311149597168 15.82198047637939 2.184635162353516 16.21109962463379 2.827678680419922 L 19.14548873901367 7.6768798828125 C 19.42047119140625 8.13129997253418 19.86491966247559 8.457679748535156 20.38080978393555 8.584030151367188 L 25.87618064880371 9.929960250854492 C 27.31557083129883 10.28249931335449 27.88504028320312 12.02332878112793 26.93227005004883 13.1583890914917 L 23.23600959777832 17.56184005737305 C 22.89979934692383 17.96237945556641 22.73384094238281 18.47866058349609 22.77368927001953 19.00008964538574 L 23.21224021911621 24.73854827880859 C 23.32616996765137 26.22933959960938 21.82373428344727 27.31346893310547 20.44486045837402 26.73544883728027 L 15.27320003509521 24.56752967834473 C 14.77858066558838 24.36018943786621 14.22141933441162 24.36018943786621 13.72679996490479 24.56752967834473 L 8.555139541625977 26.73544883728027 C 7.17626953125 27.31346702575684 5.673830032348633 26.22934150695801 5.787759780883789 24.73854827880859 L 6.226310729980469 19.00008964538574 C 6.266159057617188 18.47866821289062 6.100200653076172 17.96237945556641 5.76399040222168 17.56184005737305 L 2.067729949951172 13.1583890914917 C 1.114959716796875 12.02334022521973 1.684419631958008 10.28249931335449 3.123819351196289 9.929960250854492 L 8.619190216064453 8.584030151367188 C 9.135080337524414 8.457679748535156 9.579530715942383 8.13129997253418 9.854509353637695 7.6768798828125 L 12.78889083862305 2.827678680419922 C 13.17801475524902 2.184635162353516 13.83900737762451 1.86311149597168 14.49999904632568 1.86311149597168 Z" stroke="none" fill="#ff972e"/>
    </g>
  </g>
</svg>
