<svg xmlns="http://www.w3.org/2000/svg" xmlns:xlink="http://www.w3.org/1999/xlink" width="28" height="28" viewBox="0 0 28 28">
  <defs>
    <clipPath id="clip-path">
      <rect id="사각형_232" data-name="사각형 232" width="22.655" height="17.45" fill="none"/>
    </clipPath>
  </defs>
  <g id="mypage_camera_icon" transform="translate(-689 -366)">
    <rect id="사각형_233" data-name="사각형 233" width="28" height="28" transform="translate(689 366)" fill="#fff" opacity="0"/>
    <g id="그룹_412" data-name="그룹 412" transform="translate(692 371)">
      <g id="그룹_411" data-name="그룹 411" clip-path="url(#clip-path)">
        <path id="패스_253" data-name="패스 253" d="M19.38,2.959H18.062V2a2,2,0,0,0-2-2H6.592a2,2,0,0,0-2,2v.958H3.274A3.274,3.274,0,0,0,0,6.234v7.942A3.275,3.275,0,0,0,3.274,17.45H19.38a3.274,3.274,0,0,0,3.274-3.275V6.234A3.274,3.274,0,0,0,19.38,2.959" transform="translate(0.001)" fill="#7051ff"/>
        <path id="패스_254" data-name="패스 254" d="M43.368,32.184A4.184,4.184,0,1,1,39.184,28a4.184,4.184,0,0,1,4.184,4.184" transform="translate(-27.857 -22.285)" fill="#fff"/>
      </g>
    </g>
  </g>
</svg>
