<svg xmlns="http://www.w3.org/2000/svg" xmlns:xlink="http://www.w3.org/1999/xlink" width="161" height="26" viewBox="0 0 161 26">
  <defs>
    <clipPath id="clip-path">
      <rect id="사각형_80" data-name="사각형 80" width="160.586" height="24" fill="none"/>
    </clipPath>
  </defs>
  <g id="job_logo" transform="translate(-40 -43)">
    <rect id="사각형_92" data-name="사각형 92" width="161" height="26" transform="translate(40 43)" fill="#a24040" opacity="0"/>
    <g id="그룹_96" data-name="그룹 96" transform="translate(40 43.5)">
      <g id="그룹_95" data-name="그룹 95" clip-path="url(#clip-path)">
        <path id="패스_46" data-name="패스 46" d="M71.593,23.111a14.256,14.256,0,0,1-4.821-.844,12.759,12.759,0,0,1-4.3-2.595l2.795-3.348a14.021,14.021,0,0,0,3.025,1.9,8.069,8.069,0,0,0,3.393.706,4.136,4.136,0,0,0,2.288-.537,1.693,1.693,0,0,0,.814-1.489v-.062a1.862,1.862,0,0,0-.17-.814,1.709,1.709,0,0,0-.647-.66,6.762,6.762,0,0,0-1.324-.614q-.846-.306-2.2-.645a26.779,26.779,0,0,1-2.956-.891,8.322,8.322,0,0,1-2.248-1.213,4.9,4.9,0,0,1-1.432-1.8A6.249,6.249,0,0,1,63.3,7.541V7.479a6.222,6.222,0,0,1,.55-2.656,6.03,6.03,0,0,1,1.54-2.042A6.927,6.927,0,0,1,67.759,1.46,9.553,9.553,0,0,1,70.794,1a12.88,12.88,0,0,1,4.346.706,12.623,12.623,0,0,1,3.639,2.028L76.322,7.3A15.477,15.477,0,0,0,73.5,5.745a7.212,7.212,0,0,0-2.764-.568,3.347,3.347,0,0,0-2.073.537,1.634,1.634,0,0,0-.691,1.336v.061a1.94,1.94,0,0,0,.2.906,1.816,1.816,0,0,0,.724.691,6.732,6.732,0,0,0,1.432.583q.908.277,2.294.645a22.359,22.359,0,0,1,2.909.967,8.157,8.157,0,0,1,2.156,1.29,4.941,4.941,0,0,1,1.324,1.766,6.007,6.007,0,0,1,.446,2.427v.061a6.661,6.661,0,0,1-.579,2.841,5.841,5.841,0,0,1-1.617,2.088,7.293,7.293,0,0,1-2.476,1.29,10.78,10.78,0,0,1-3.189.445" fill="#333"/>
        <path id="패스_47" data-name="패스 47" d="M7.614,23.436A7.788,7.788,0,0,1,0,15.5H4a3.788,3.788,0,0,0,3.614,3.933A3.788,3.788,0,0,0,11.228,15.5V1h4V15.5a7.788,7.788,0,0,1-7.614,7.933" fill="#7d4be3"/>
        <path id="패스_48" data-name="패스 48" d="M29.244,24a11.5,11.5,0,1,1,11.5-11.5A11.513,11.513,0,0,1,29.244,24m0-19a7.5,7.5,0,1,0,7.5,7.5,7.508,7.508,0,0,0-7.5-7.5" fill="#7d4be3"/>
        <path id="패스_49" data-name="패스 49" d="M56.963,11.367a6.13,6.13,0,0,0,1.4-3.867A6.8,6.8,0,0,0,51.305,1H43.5V23h8.706c4.289,0,7.778-2.916,7.778-6.5a6.19,6.19,0,0,0-3.023-5.133M51.305,5a2.823,2.823,0,0,1,3.056,2.5A2.823,2.823,0,0,1,51.305,10H47.5V5Zm.9,14H47.5V14h4.706c2.013,0,3.778,1.168,3.778,2.5S54.221,19,52.208,19" fill="#7d4be3"/>
        <path id="패스_50" data-name="패스 50" d="M98.228,1H80.8V5h6.713V23h4V5h6.713Z" fill="#333"/>
        <path id="패스_51" data-name="패스 51" d="M135.422,13.43A6.508,6.508,0,0,0,139.6,7.5,6.8,6.8,0,0,0,132.547,1h-7.8V23h4V14h2.469l-.049.028,4.968,8.766h4.6ZM128.744,5h3.8A2.822,2.822,0,0,1,135.6,7.5a2.822,2.822,0,0,1-3.055,2.5h-3.8Z" fill="#333"/>
        <path id="패스_52" data-name="패스 52" d="M156.03,1l-5.372,8.629L145.286,1H140.73l7.928,12.734V23h4V13.734L160.586,1Z" fill="#333"/>
        <path id="패스_53" data-name="패스 53" d="M120.47,9.743A9.744,9.744,0,0,0,110.432,0a9.846,9.846,0,0,0-9.44,9.346,9.733,9.733,0,0,0,8,9.968,1.048,1.048,0,0,1,.783,1.458c-.14.317-.286.62-.432.905a.9.9,0,0,0,1.206,1.217,19.2,19.2,0,0,0,8.869-8.757,9.688,9.688,0,0,0,1.057-4.4" fill="#333"/>
      </g>
    </g>
  </g>
</svg>
