<svg width="560" height="368" viewBox="0 0 560 368" fill="none" xmlns="http://www.w3.org/2000/svg">
<g clip-path="url(#clip0_604_6287)">
<path d="M385.301 171.418C385.301 249.883 316.162 302.618 261.234 313.856C253.387 315.456 273.077 291.961 264.758 291.961C240.917 291.961 217.611 284.891 197.788 271.646C177.965 258.4 162.514 239.574 153.391 217.548C144.267 195.522 141.88 171.284 146.531 147.901C151.182 124.518 162.663 103.04 179.521 86.1813C196.379 69.323 217.858 57.8424 241.241 53.1913C264.624 48.5401 288.861 50.9272 310.888 60.0508C332.914 69.1745 351.74 84.6248 364.986 104.448C378.231 124.271 385.301 147.577 385.301 171.418" fill="#7051FF"/>
<path d="M221.868 151.132C221.868 167.458 211.748 180.688 199.268 180.688C186.788 180.688 176.668 167.458 176.668 151.132C176.668 134.806 186.785 121.577 199.268 121.577C211.751 121.577 221.868 134.807 221.868 151.132" fill="white"/>
<path d="M261.827 153.672C261.827 169.997 251.707 183.227 239.227 183.227C226.747 183.227 216.627 169.997 216.627 153.672C216.627 137.347 226.744 124.117 239.227 124.117C251.71 124.117 261.827 137.347 261.827 153.672Z" fill="white"/>
<path d="M201.581 137.191C201.581 139.196 200.986 141.157 199.871 142.824C198.757 144.492 197.173 145.791 195.321 146.559C193.468 147.326 191.429 147.527 189.462 147.136C187.495 146.745 185.688 145.779 184.27 144.361C182.852 142.943 181.886 141.137 181.494 139.17C181.102 137.203 181.303 135.164 182.07 133.311C182.837 131.458 184.136 129.874 185.804 128.759C187.471 127.645 189.431 127.049 191.437 127.049C192.769 127.048 194.088 127.31 195.319 127.82C196.55 128.33 197.668 129.077 198.61 130.018C199.552 130.96 200.299 132.078 200.809 133.309C201.319 134.54 201.581 135.859 201.581 137.191V137.191Z" fill="#231F20"/>
<path d="M240.714 140.594C240.714 142.6 240.119 144.56 239.005 146.228C237.891 147.896 236.308 149.196 234.455 149.964C232.602 150.731 230.563 150.933 228.596 150.542C226.629 150.151 224.822 149.185 223.403 147.767C221.985 146.349 221.019 144.543 220.627 142.576C220.235 140.609 220.436 138.57 221.203 136.717C221.97 134.863 223.269 133.279 224.936 132.165C226.604 131.05 228.564 130.455 230.57 130.454C231.902 130.454 233.22 130.716 234.451 131.225C235.682 131.734 236.8 132.481 237.742 133.423C238.684 134.365 239.431 135.482 239.941 136.713C240.451 137.943 240.714 139.262 240.714 140.594Z" fill="#231F20"/>
<path d="M181.701 191.967C181.701 191.967 205.721 214.223 244.833 203.067" stroke="#5A2F77" stroke-width="6" stroke-linecap="round" stroke-linejoin="round"/>
<path d="M153.143 192.682C153.143 192.682 133.803 202.37 101.074 197.907" stroke="#7051FF" stroke-width="17" stroke-linecap="round" stroke-linejoin="round"/>
<path d="M376.2 181.1C376.2 181.1 404.466 180.949 411.161 202.223C417.856 223.497 362.073 219.034 365.042 227.961C368.011 236.888 380.215 239.12 380.215 239.12" stroke="#7051FF" stroke-width="17" stroke-linecap="round" stroke-linejoin="round"/>
<path d="M449.001 230.217L369.438 216.85C368.315 216.662 367.279 216.124 366.48 215.313C365.681 214.502 365.159 213.458 364.989 212.332C364.818 211.206 365.008 210.055 365.531 209.044C366.054 208.032 366.883 207.212 367.901 206.7L413.412 202.219C415.612 201.119 419.753 182.456 421.377 184.301L453.95 221.326C454.69 222.163 455.152 223.209 455.272 224.319C455.393 225.43 455.166 226.551 454.623 227.527C454.08 228.503 453.247 229.287 452.24 229.77C451.233 230.254 450.101 230.413 449 230.226" fill="#C4CEFF"/>
<path d="M514.548 241.523L395.887 220.9C392.769 220.358 389.995 218.599 388.174 216.011C386.353 213.423 385.634 210.218 386.177 207.1L399.654 129.574C400.196 126.456 401.954 123.681 404.542 121.859C407.13 120.038 410.335 119.319 413.454 119.86L532.113 140.489C535.23 141.033 538.003 142.792 539.824 145.379C541.645 147.967 542.364 151.172 541.823 154.289L528.346 231.811C528.078 233.355 527.508 234.832 526.67 236.156C525.831 237.48 524.74 238.625 523.458 239.528C522.177 240.43 520.73 241.071 519.201 241.414C517.671 241.756 516.09 241.795 514.546 241.526" fill="white"/>
<path d="M477.358 181.162C477.358 183.267 476.734 185.324 475.565 187.074C474.396 188.824 472.735 190.188 470.79 190.994C468.846 191.799 466.706 192.01 464.642 191.6C462.578 191.189 460.682 190.176 459.194 188.688C457.705 187.2 456.692 185.304 456.281 183.24C455.87 181.176 456.081 179.036 456.886 177.092C457.691 175.147 459.055 173.485 460.805 172.316C462.554 171.146 464.612 170.522 466.716 170.522V170.522C468.113 170.522 469.497 170.797 470.788 171.332C472.079 171.866 473.252 172.65 474.24 173.638C475.228 174.626 476.012 175.798 476.547 177.089C477.082 178.38 477.357 179.764 477.357 181.161L477.358 181.162Z" fill="#C4CEFF"/>
<path d="M376.862 127.048L127.111 95.9481C127.111 95.9481 127.89 87.0931 135.327 86.3141C142.764 85.5351 176 86.3141 176 86.3141C176 86.3141 212.685 11.9001 287.071 35.7001C361.457 59.5001 384.089 73.3571 376.862 127.052" fill="#C4CEFF"/>
<path d="M35.7623 237.672L26.3223 241.1L18.6093 219.853C17.7 217.349 17.8223 214.587 18.9494 212.174C20.0764 209.76 22.1159 207.894 24.6193 206.984L35.7623 237.672Z" fill="#ABA9FF"/>
<path d="M51.7568 281.72C49.2537 282.629 46.4921 282.506 44.0794 281.379C41.6668 280.252 39.8007 278.212 38.8918 275.709L31.1738 254.461L40.6138 251.032L51.7568 281.72Z" fill="#ABA9FF"/>
<path d="M31.1736 254.461L28.4136 255.461C27.5363 255.78 26.6048 255.922 25.6724 255.881C24.74 255.839 23.8249 255.615 22.9793 255.22C21.2716 254.422 19.9508 252.978 19.3076 251.206C18.6643 249.434 18.7512 247.48 19.5491 245.772C20.3471 244.064 21.7908 242.743 23.5626 242.1L26.3226 241.1L31.1736 254.461Z" fill="#5E79FF"/>
<path d="M69.4531 240.562L78.8931 237.133L86.6071 258.381C87.5163 260.884 87.3943 263.646 86.2679 266.059C85.1414 268.472 83.1028 270.339 80.6001 271.25L69.4531 240.562Z" fill="#ABA9FF"/>
<path d="M53.4551 196.515C55.9582 195.606 58.7198 195.729 61.1325 196.856C63.5451 197.983 65.4112 200.023 66.3201 202.526L74.0381 223.774L64.6001 227.2L53.4551 196.515Z" fill="#ABA9FF"/>
<path d="M74.0391 223.773L76.7991 222.773C78.5711 222.13 80.5261 222.217 82.234 223.015C83.9419 223.813 85.2628 225.257 85.9061 227.029C86.5493 228.801 86.4623 230.756 85.6642 232.464C84.866 234.172 83.4221 235.493 81.6501 236.136L78.8901 237.136L74.0391 223.773Z" fill="#5E79FF"/>
<path d="M468.193 289.548C468.193 308.694 453.203 331.885 428.78 337.34C426.316 337.891 431.403 328.961 428.78 328.961C420.985 328.961 413.365 326.649 406.884 322.319C400.402 317.988 395.35 311.832 392.367 304.63C389.384 297.429 388.604 289.504 390.125 281.859C391.645 274.213 395.399 267.191 400.911 261.679C406.423 256.167 413.446 252.413 421.091 250.892C428.736 249.371 436.661 250.152 443.863 253.135C451.065 256.118 457.22 261.17 461.551 267.651C465.882 274.133 468.193 281.753 468.193 289.548" fill="#C2F503"/>
<path d="M409.814 278.622C409.814 279.181 409.648 279.728 409.338 280.194C409.027 280.659 408.585 281.022 408.068 281.236C407.551 281.45 406.982 281.506 406.433 281.397C405.885 281.287 405.38 281.018 404.985 280.622C404.589 280.227 404.32 279.723 404.211 279.174C404.101 278.625 404.157 278.056 404.372 277.539C404.586 277.022 404.948 276.581 405.414 276.27C405.879 275.959 406.426 275.793 406.985 275.793C407.735 275.793 408.455 276.091 408.985 276.622C409.516 277.152 409.814 277.872 409.814 278.622V278.622Z" fill="#231F20"/>
<path d="M423.219 283.855C423.219 284.414 423.053 284.961 422.742 285.427C422.431 285.892 421.989 286.254 421.472 286.469C420.955 286.683 420.386 286.739 419.838 286.63C419.289 286.52 418.785 286.251 418.389 285.855C417.993 285.46 417.724 284.956 417.615 284.407C417.506 283.858 417.562 283.289 417.776 282.772C417.99 282.255 418.353 281.814 418.818 281.503C419.283 281.192 419.83 281.026 420.39 281.026V281.026C420.761 281.026 421.129 281.099 421.472 281.241C421.815 281.383 422.127 281.591 422.39 281.853C422.652 282.116 422.861 282.428 423.003 282.771C423.145 283.114 423.218 283.481 423.219 283.853V283.853" fill="#231F20"/>
<path d="M407.318 300.767C404.72 299.742 402.634 297.727 401.521 295.165C400.408 292.603 400.358 289.704 401.382 287.105L401.553 286.664C401.731 286.2 402.085 285.826 402.538 285.623C402.991 285.421 403.507 285.407 403.97 285.584V285.584L412 288.7L420.029 291.817C420.258 291.907 420.467 292.04 420.644 292.211C420.821 292.381 420.963 292.585 421.061 292.81C421.159 293.035 421.213 293.278 421.217 293.523C421.222 293.769 421.178 294.013 421.088 294.242V294.242L420.917 294.679C420.424 295.971 419.682 297.153 418.732 298.159C417.782 299.164 416.644 299.972 415.381 300.537C414.119 301.102 412.758 301.413 411.376 301.452C409.993 301.491 408.617 301.258 407.324 300.765H407.317" fill="white"/>
<path d="M33.2077 66.117C28.6607 84.712 37.7127 110.8 60.1397 121.9C62.4057 123.022 59.5847 113.137 62.1317 113.76C69.7034 115.611 77.654 115.175 84.9781 112.508C92.3022 109.84 98.6708 105.061 103.279 98.774C107.886 92.4871 110.526 84.9749 110.865 77.1876C111.203 69.4002 109.225 61.6874 105.18 55.0244C101.135 48.3614 95.2049 43.0475 88.1399 39.7547C81.0748 36.4619 73.192 35.3381 65.4882 36.5253C57.7845 37.7125 50.6058 41.1575 44.8599 46.4246C39.114 51.6917 35.059 58.5444 33.2077 66.116V66.116" fill="#7FEA7C"/>
<path d="M94.2484 70.1C94.1207 70.6174 94.1493 71.1611 94.3308 71.6623C94.5122 72.1634 94.8383 72.5994 95.2677 72.9151C95.6971 73.2308 96.2106 73.412 96.743 73.4358C97.2754 73.4595 97.803 73.3247 98.2588 73.0485C98.7145 72.7722 99.0781 72.3669 99.3034 71.8839C99.5288 71.4009 99.6057 70.8619 99.5245 70.3352C99.4433 69.8084 99.2076 69.3176 98.8473 68.9249C98.487 68.5321 98.0182 68.2552 97.5004 68.129V68.129C96.808 67.96 96.0768 68.0726 95.4673 68.4421C94.8578 68.8117 94.4198 69.4079 94.2494 70.1V70.1" fill="#231F20"/>
<path d="M78.7013 72.3721C78.5738 72.8896 78.6026 73.4333 78.7841 73.9345C78.9656 74.4356 79.2916 74.8717 79.721 75.1875C80.1503 75.5034 80.6636 75.6848 81.1961 75.709C81.7285 75.7331 82.2562 75.5988 82.7123 75.323C83.1684 75.0473 83.5325 74.6425 83.7586 74.1598C83.9847 73.6771 84.0626 73.1383 83.9824 72.6113C83.9022 72.0844 83.6676 71.5931 83.3082 71.1995C82.9488 70.8059 82.4808 70.5277 81.9633 70.4001V70.4001C81.2693 70.2303 80.5363 70.3425 79.9249 70.7122C79.3134 71.0818 78.8735 71.6787 78.7013 72.3721" fill="#231F20"/>
<path d="M420.035 291.818L418.404 291.187C417.796 291.772 417.062 292.21 416.26 292.47C415.457 292.73 414.606 292.804 413.77 292.687C411.655 291.971 409.578 291.144 407.55 290.208C406.15 289.608 405.934 287.535 405.927 286.338L403.977 285.581C403.748 285.493 403.503 285.451 403.258 285.458C403.012 285.464 402.77 285.519 402.546 285.619C402.321 285.719 402.119 285.862 401.95 286.041C401.781 286.219 401.648 286.429 401.56 286.658V286.658L401.389 287.099C400.38 289.679 400.435 292.554 401.54 295.095C402.646 297.635 404.713 299.635 407.288 300.655C409.864 301.675 412.739 301.634 415.285 300.54C417.83 299.445 419.838 297.387 420.87 294.816C420.888 294.771 420.906 294.725 420.923 294.68L421.09 294.243C421.272 293.781 421.264 293.266 421.066 292.811C420.869 292.355 420.499 291.997 420.037 291.814" fill="#FF8B93"/>
<path d="M84.2188 80.3239C84.2188 80.3239 91.8298 84.6629 97.0768 79.0239" stroke="#3A619C" stroke-width="3" stroke-linecap="round" stroke-linejoin="round"/>
<path d="M377.655 120.016L176.132 86.053C176.047 86.219 176 86.313 176 86.313C176 86.313 142.764 85.533 135.327 86.313C127.89 87.093 127.111 95.947 127.111 95.947L376.862 127.047C377.189 124.62 377.453 122.274 377.655 120.009" fill="#00FFFF"/>
<path d="M303.291 41.0269C310.67 52.3269 321.791 74.4269 328.457 111.727L377.657 120.018C381.594 75.9429 361.745 60.8439 303.294 41.0289" fill="#A959FF"/>
<path d="M302.726 40.8351C287.731 49.1841 257.971 68.3061 240.041 96.8231L328.458 111.723C321.796 74.4231 310.671 52.3231 303.292 41.0231L302.726 40.8311" fill="#C4CEFF"/>
<path d="M302.725 40.835C297.783 39.1637 292.565 37.452 287.071 35.7C215.218 12.711 178.546 81.35 176.131 86.053L240.04 96.823C257.97 68.306 287.73 49.184 302.725 40.835" fill="#A959FF"/>
</g>
<defs>
<clipPath id="clip0_604_6287">
<rect width="560" height="368" fill="white"/>
</clipPath>
</defs>
</svg>
