<svg width="200" height="132" viewBox="0 0 200 132" fill="none" xmlns="http://www.w3.org/2000/svg">
<path d="M137.606 61.3898C137.606 89.4905 112.914 108.377 93.2964 112.401C90.4939 112.974 97.5261 104.56 94.555 104.56C86.0403 104.56 77.7168 102.028 70.6371 97.2844C63.5574 92.5409 58.0394 85.7986 54.781 77.9103C51.5226 70.022 50.67 61.3419 52.3311 52.9678C53.9923 44.5936 58.0925 36.9014 64.1133 30.864C70.1341 24.8265 77.8051 20.715 86.1562 19.0492C94.5072 17.3835 103.163 18.2384 111.03 21.5059C118.896 24.7733 125.62 30.3065 130.351 37.4058C135.081 44.5051 137.606 52.8516 137.606 61.3898" fill="#7051FF"/>
<path d="M79.2366 54.1251C79.2366 59.9719 75.6223 64.71 71.1652 64.71C66.708 64.71 63.0938 59.9719 63.0938 54.1251C63.0938 48.2782 66.707 43.5405 71.1652 43.5405C75.6234 43.5405 79.2366 48.2786 79.2366 54.1251" fill="white"/>
<path d="M93.5081 55.0347C93.5081 60.8812 89.8938 65.6193 85.4367 65.6193C80.9795 65.6193 77.3652 60.8812 77.3652 55.0347C77.3652 49.1883 80.9785 44.4502 85.4367 44.4502C89.8949 44.4502 93.5081 49.1883 93.5081 55.0347Z" fill="white"/>
<path d="M71.9916 49.1322C71.9915 49.8504 71.7791 50.5525 71.3811 51.1497C70.9832 51.7468 70.4176 52.2123 69.7558 52.4871C69.0941 52.762 68.3659 52.8339 67.6634 52.6938C66.9609 52.5538 66.3156 52.2079 65.8091 51.7001C65.3026 51.1923 64.9576 50.5453 64.8177 49.8409C64.6779 49.1364 64.7495 48.4063 65.0235 47.7426C65.2974 47.079 65.7615 46.5117 66.3569 46.1126C66.9524 45.7134 67.6525 45.5002 68.3688 45.5C68.8445 45.4999 69.3156 45.5937 69.7552 45.7762C70.1947 45.9587 70.5941 46.2262 70.9306 46.5635C71.267 46.9008 71.5339 47.3012 71.7159 47.742C71.898 48.1827 71.9917 48.6551 71.9916 49.1322V49.1322Z" fill="#231F20"/>
<path d="M85.9682 50.3512C85.9683 51.0694 85.7559 51.7716 85.358 52.3689C84.9602 52.9661 84.3946 53.4317 83.7329 53.7067C83.0712 53.9816 82.343 54.0537 81.6404 53.9137C80.9379 53.7737 80.2925 53.4279 79.7859 52.9201C79.2793 52.4123 78.9343 51.7653 78.7944 51.0608C78.6545 50.3564 78.726 49.6262 79 48.9625C79.2739 48.2989 79.738 47.7316 80.3334 47.3323C80.9289 46.9331 81.629 46.7199 82.3453 46.7197C82.821 46.7196 83.2921 46.8134 83.7316 46.9958C84.1711 47.1783 84.5705 47.4457 84.9069 47.7829C85.2433 48.1202 85.5102 48.5205 85.6923 48.9612C85.8744 49.4019 85.9681 49.8742 85.9682 50.3512Z" fill="#231F20"/>
<path d="M64.8926 68.749C64.8926 68.749 73.4712 76.7196 87.4397 72.7243" stroke="#5A2F77" stroke-width="6" stroke-linecap="round" stroke-linejoin="round"/>
<path d="M54.6918 69.0054C54.6918 69.0054 47.7846 72.4749 36.0957 70.8766" stroke="#7051FF" stroke-width="17" stroke-linecap="round" stroke-linejoin="round"/>
<path d="M134.356 64.8574C134.356 64.8574 144.451 64.8034 146.842 72.4222C149.233 80.0411 129.311 78.4427 130.371 81.6398C131.431 84.8368 135.79 85.6361 135.79 85.6361" stroke="#7051FF" stroke-width="17" stroke-linecap="round" stroke-linejoin="round"/>
<path d="M160.356 82.4478L131.941 77.6607C131.54 77.5935 131.17 77.4008 130.885 77.1102C130.599 76.8196 130.413 76.446 130.352 76.0428C130.291 75.6396 130.359 75.2273 130.546 74.865C130.732 74.5028 131.029 74.209 131.392 74.0257L147.646 72.4209C148.432 72.0269 149.91 65.3432 150.49 66.0039L162.124 79.2637C162.388 79.5635 162.553 79.938 162.596 80.3357C162.639 80.7335 162.558 81.1348 162.364 81.4844C162.17 81.8341 161.873 82.1148 161.513 82.2879C161.153 82.461 160.749 82.518 160.356 82.451" fill="#C4CEFF"/>
<path d="M183.765 86.4966L141.386 79.1108C140.273 78.9166 139.282 78.2867 138.632 77.3599C137.981 76.4331 137.725 75.2852 137.919 74.1687L142.732 46.4042C142.925 45.2876 143.553 44.2937 144.478 43.6413C145.402 42.9889 146.547 42.7314 147.66 42.9254L190.039 50.3132C191.152 50.5079 192.142 51.1378 192.793 52.0645C193.443 52.9913 193.7 54.139 193.506 55.2554L188.693 83.0184C188.597 83.5714 188.394 84.1001 188.095 84.5743C187.795 85.0484 187.405 85.4588 186.948 85.7819C186.49 86.105 185.973 86.3345 185.427 86.4573C184.881 86.5801 184.316 86.5938 183.765 86.4976" fill="white"/>
<path d="M170.484 64.8798C170.484 65.6336 170.261 66.3704 169.843 66.9971C169.426 67.6238 168.832 68.1123 168.138 68.4008C167.443 68.6893 166.679 68.7649 165.942 68.6179C165.205 68.4709 164.528 68.108 163.996 67.5751C163.465 67.0422 163.103 66.3632 162.956 65.624C162.809 64.8848 162.884 64.1185 163.172 63.4222C163.46 62.7258 163.947 62.1306 164.572 61.7118C165.196 61.293 165.931 61.0694 166.683 61.0693V61.0693C167.182 61.0693 167.676 61.1678 168.137 61.3593C168.598 61.5507 169.017 61.8313 169.37 62.1852C169.723 62.539 170.003 62.959 170.194 63.4213C170.385 63.8836 170.483 64.3791 170.483 64.8795L170.484 64.8798Z" fill="#C4CEFF"/>
<path d="M134.593 45.4997L45.3965 34.3618C45.3965 34.3618 45.6747 31.1906 48.3308 30.9116C50.9868 30.6326 62.8568 30.9116 62.8568 30.9116C62.8568 30.9116 75.9586 4.2617 102.525 12.7852C129.091 21.3087 137.174 26.2713 134.593 45.5011" fill="#C4CEFF"/>
<path d="M12.7713 85.1177L9.39985 86.3454L6.64521 78.7362C6.32045 77.8396 6.36413 76.8504 6.76666 75.9861C7.16918 75.1218 7.89758 74.4532 8.79164 74.1274L12.7713 85.1177Z" fill="#ABA9FF"/>
<path d="M18.4839 100.893C17.5899 101.218 16.6036 101.174 15.742 100.77C14.8803 100.367 14.2139 99.6364 13.8892 98.7399L11.1328 91.1304L14.5042 89.9023L18.4839 100.893Z" fill="#ABA9FF"/>
<path d="M11.1324 91.1302L10.1467 91.4883C9.8334 91.6024 9.50074 91.6535 9.16774 91.6386C8.83474 91.6238 8.50791 91.5433 8.20592 91.4018C7.59603 91.116 7.12432 90.599 6.89458 89.9645C6.66483 89.3299 6.69587 88.6299 6.98086 88.0183C7.26585 87.4067 7.78144 86.9337 8.41422 86.7033L9.39993 86.3452L11.1324 91.1302Z" fill="#5E79FF"/>
<path d="M24.8047 86.1528L28.1761 84.9248L30.9311 92.5344C31.2558 93.4308 31.2123 94.4199 30.81 95.2841C30.4077 96.1484 29.6796 96.817 28.7858 97.1431L24.8047 86.1528Z" fill="#ABA9FF"/>
<path d="M19.0898 70.378C19.9838 70.0525 20.9701 70.0965 21.8318 70.5002C22.6934 70.9039 23.3599 71.6343 23.6845 72.5308L26.4409 80.1403L23.0702 81.3673L19.0898 70.378Z" fill="#ABA9FF"/>
<path d="M26.4414 80.1398L27.4271 79.7817C28.06 79.5513 28.7582 79.5825 29.3682 79.8683C29.9781 80.1542 30.4499 80.6713 30.6796 81.3059C30.9094 81.9405 30.8783 82.6407 30.5932 83.2523C30.3082 83.864 29.7925 84.337 29.1596 84.5674L28.1739 84.9255L26.4414 80.1398Z" fill="#5E79FF"/>
<path d="M134.876 42.9813L62.904 30.8181C62.8736 30.8776 62.8568 30.9113 62.8568 30.9113C62.8568 30.9113 50.9868 30.6319 48.3308 30.9113C45.6747 31.1906 45.3965 34.3615 45.3965 34.3615L134.593 45.4993C134.71 44.63 134.804 43.7899 134.876 42.9788" fill="#00FFFF"/>
<path d="M108.316 14.6929C110.952 18.7397 114.924 26.6544 117.304 40.0127L134.876 42.9819C136.282 27.1973 129.193 21.7899 108.317 14.6936" fill="#A959FF"/>
<path d="M108.116 14.6245C102.761 17.6145 92.1321 24.4627 85.7285 34.6755L117.306 40.0116C114.927 26.6534 110.954 18.7387 108.318 14.6918L108.116 14.623" fill="#C4CEFF"/>
<path d="M108.114 14.6243C106.349 14.0258 104.486 13.4128 102.524 12.7853C76.862 4.55227 63.7648 29.134 62.9023 30.8183L85.727 34.6753C92.1306 24.4625 102.759 17.6144 108.114 14.6243" fill="#A959FF"/>
</svg>
