<svg width="48" height="48" viewBox="0 0 48 48" fill="none" xmlns="http://www.w3.org/2000/svg">
<circle cx="24" cy="24" r="24" fill="#C8ACFF"/>
<path d="M36 36.5V37.25C36.4142 37.25 36.75 36.9142 36.75 36.5H36ZM12 36.5H11.25C11.25 36.9142 11.5858 37.25 12 37.25V36.5ZM18 28.25H30V26.75H18V28.25ZM35.25 33.5V36.5H36.75V33.5H35.25ZM12.75 36.5V33.5H11.25V36.5H12.75ZM30 28.25C32.8995 28.25 35.25 30.6005 35.25 33.5H36.75C36.75 29.7721 33.7279 26.75 30 26.75V28.25ZM18 26.75C14.2721 26.75 11.25 29.7721 11.25 33.5H12.75C12.75 30.6005 15.1005 28.25 18 28.25V26.75ZM29.25 15.5C29.25 18.3995 26.8995 20.75 24 20.75V22.25C27.7279 22.25 30.75 19.2279 30.75 15.5H29.25ZM24 20.75C21.1005 20.75 18.75 18.3995 18.75 15.5H17.25C17.25 19.2279 20.2721 22.25 24 22.25V20.75ZM18.75 15.5C18.75 12.6005 21.1005 10.25 24 10.25V8.75C20.2721 8.75 17.25 11.7721 17.25 15.5H18.75ZM24 10.25C26.8995 10.25 29.25 12.6005 29.25 15.5H30.75C30.75 11.7721 27.7279 8.75 24 8.75V10.25ZM12 37.25H36V35.75H12V37.25Z" fill="white"/>
</svg>
