<svg width="20" height="23" viewBox="0 0 20 23" fill="none" xmlns="http://www.w3.org/2000/svg">
<path d="M19.4858 9.74744C19.4863 8.4428 19.2247 7.15136 18.7167 5.9497C18.2087 4.74804 17.4645 3.66063 16.5283 2.75198C15.5922 1.84332 14.483 1.13191 13.2668 0.659947C12.0505 0.187983 10.7518 -0.0349274 9.44779 0.00443665C6.99163 0.102725 4.66107 1.1162 2.91424 2.84564C1.1674 4.57508 0.13065 6.89538 0.0077871 9.35044C-0.0861276 11.6976 0.672016 13.9996 2.14233 15.8316C3.61265 17.6636 5.69592 18.9021 8.00779 19.3184C8.1652 19.3451 8.31444 19.4074 8.44411 19.5005C8.57378 19.5937 8.68046 19.7152 8.75599 19.8559C8.83153 19.9965 8.87393 20.1526 8.87996 20.3121C8.88599 20.4717 8.8555 20.6305 8.79079 20.7764C8.65079 21.0934 8.50479 21.3964 8.35879 21.6814C8.27112 21.8505 8.23934 22.0431 8.26803 22.2313C8.29673 22.4196 8.38442 22.594 8.51848 22.7292C8.65255 22.8645 8.82607 22.9538 9.01409 22.9842C9.20211 23.0146 9.39492 22.9846 9.56479 22.8984C13.4127 21.0469 16.5335 17.9655 18.4338 14.1414C19.1285 12.7788 19.4907 11.271 19.4908 9.74144" fill="#7051FF"/>
</svg>
