<?xml version="1.0" encoding="UTF-8" standalone="no"?>
<!-- Created with Inkscape (http://www.inkscape.org/) -->

<svg
   version="1.1"
   id="svg2"
   xml:space="preserve"
   width="426.66666"
   height="214.66667"
   viewBox="0 0 426.66666 214.66667"
   sodipodi:docname="JOBSTIRY-최종로고 (2).ai"
   xmlns:inkscape="http://www.inkscape.org/namespaces/inkscape"
   xmlns:sodipodi="http://sodipodi.sourceforge.net/DTD/sodipodi-0.dtd"
   xmlns="http://www.w3.org/2000/svg"
   xmlns:svg="http://www.w3.org/2000/svg"><defs
     id="defs6"><clipPath
       clipPathUnits="userSpaceOnUse"
       id="clipPath16"><path
         d="M 0,161 H 320 V 0 H 0 Z"
         id="path14" /></clipPath></defs><sodipodi:namedview
     id="namedview4"
     pagecolor="#ffffff"
     bordercolor="#666666"
     borderopacity="1.0"
     inkscape:pageshadow="2"
     inkscape:pageopacity="0.0"
     inkscape:pagecheckerboard="0" /><g
     id="g8"
     inkscape:groupmode="layer"
     inkscape:label="JOBSTIRY-최종로고 (2)"
     transform="matrix(1.3333333,0,0,-1.3333333,0,214.66667)"><g
       id="g10"><g
         id="g12"
         clip-path="url(#clipPath16)"><g
           id="g18"
           transform="translate(127.2129,91.2207)"><path
             d="m 0,0 h -5.927 v -8.098 h -8.889 v 24.297 h 8.889 V 6.916 l 5.927,0 z m -14.718,-20.097 h -18.863 v -3.459 h 18.863 z m -27.754,9.924 h 8.891 v -3.259 h 18.863 v 3.259 h 8.791 v -20.048 h -36.545 z m 2.939,11.384 c 2.025,1.531 3.04,3.433 3.04,5.705 v 2.023 h -9.237 v 6.766 h 27.407 V 8.939 h -9.284 V 7.112 c 0,-0.956 -0.099,-1.877 -0.296,-2.766 5.036,-2.107 9.105,-4.691 12.2,-7.753 l -5.532,-6.025 c -1.154,1.317 -2.61,2.675 -4.372,4.075 -1.759,1.399 -3.562,2.674 -5.405,3.826 -1.548,-1.744 -3.493,-3.276 -5.828,-4.591 -2.34,-1.317 -4.924,-2.421 -7.755,-3.31 l -3.802,6.667 c 3.885,1.119 6.841,2.446 8.864,3.976"
             style="fill:#161618;fill-opacity:1;fill-rule:nonzero;stroke:none"
             id="path20" /></g><g
           id="g22"
           transform="translate(146.1279,81.8872)"><path
             d="m 0,0 c -3.131,-2.007 -6.864,-3.852 -11.211,-5.531 l -4.299,7.16 c 3.788,1.482 6.923,2.989 9.408,4.52 2.486,1.531 4.405,3.285 5.755,5.259 1.351,1.976 2.026,4.248 2.026,6.815 v 6.321 h 9.185 V 18.42 c 0,-1.777 -0.201,-3.44 -0.594,-4.986 3.521,-1.416 6.897,-3.236 10.123,-5.458 3.226,-2.223 5.78,-4.502 7.656,-6.839 L 22.615,-5.531 C 20.805,-3.292 18.568,-1.102 15.9,1.038 13.232,3.177 10.4,5.153 7.404,6.963 5.595,4.33 3.124,2.009 0,0 m -16.05,-12 h 44.643 v -6.912 H -16.05 Z"
             style="fill:#161618;fill-opacity:1;fill-rule:nonzero;stroke:none"
             id="path24" /></g><g
           id="g26"
           transform="translate(220.6445,78.5298)"><path
             d="M 0,0 H -37.728 V 27.901 H 0 v -6.665 h -28.838 v -3.902 h 27.853 v -6.667 h -27.853 v -4 H 0 Z m -41.184,-8.643 h 17.631 v 6.47 h 9.382 v -6.47 H 3.46 v -6.912 h -44.644 z"
             style="fill:#161618;fill-opacity:1;fill-rule:nonzero;stroke:none"
             id="path28" /></g><g
           id="g30"
           transform="translate(270.9219,107.4199)"><path
             d="m 0,0 v -46.42 h -8.89 v 6.467 c -2.798,-0.526 -5.572,-0.92 -8.32,-1.187 -2.748,-0.262 -5.92,-0.393 -9.507,-0.393 h -13.776 v 23.753 h 16.392 v 9.631 h -16.392 v 6.668 h 25.282 v -22.964 h -16.396 v -10.323 h 5.284 c 5.828,0 11.638,0.478 17.433,1.431 L -8.89,0 Z"
             style="fill:#161618;fill-opacity:1;fill-rule:nonzero;stroke:none"
             id="path32" /></g><g
           id="g34"
           transform="translate(47.7031,61.377)"><path
             d="M 0,0 H -3.979 V 10.61 H 0 c 5.744,0 10.416,4.676 10.416,10.418 V 34.945 H -3.979 v 10.61 H 21.029 V 21.028 C 21.029,9.432 11.596,0 0,0"
             style="fill:#161618;fill-opacity:1;fill-rule:nonzero;stroke:none"
             id="path36" /></g><path
           d="M 43.724,72.912 H 33.111 v 24.41 h 10.613 z"
           style="fill:#00a1b0;fill-opacity:1;fill-rule:nonzero;stroke:none"
           id="path38" /></g></g></g></svg>
