<?xml version="1.0" encoding="UTF-8" standalone="no"?>
<!-- Created with Inkscape (http://www.inkscape.org/) -->

<svg
   version="1.1"
   id="svg2"
   xml:space="preserve"
   width="533.33331"
   height="214.66667"
   viewBox="0 0 533.33331 214.66667"
   sodipodi:docname="JOBSTIRY-최종로고 (1).ai"
   xmlns:inkscape="http://www.inkscape.org/namespaces/inkscape"
   xmlns:sodipodi="http://sodipodi.sourceforge.net/DTD/sodipodi-0.dtd"
   xmlns="http://www.w3.org/2000/svg"
   xmlns:svg="http://www.w3.org/2000/svg"><defs
     id="defs6"><clipPath
       clipPathUnits="userSpaceOnUse"
       id="clipPath16"><path
         d="M 0,161 H 400 V 0 H 0 Z"
         id="path14" /></clipPath></defs><sodipodi:namedview
     id="namedview4"
     pagecolor="#ffffff"
     bordercolor="#666666"
     borderopacity="1.0"
     inkscape:pageshadow="2"
     inkscape:pageopacity="0.0"
     inkscape:pagecheckerboard="0" /><g
     id="g8"
     inkscape:groupmode="layer"
     inkscape:label="JOBSTIRY-최종로고 (1)"
     transform="matrix(1.3333333,0,0,-1.3333333,0,214.66667)"><g
       id="g10"><g
         id="g12"
         clip-path="url(#clipPath16)"><g
           id="g18"
           transform="translate(156.6636,64.1836)"><path
             d="m 0,0 3.423,7.596 c 3.675,-2.678 9.153,-4.545 14.386,-4.545 5.978,0 8.404,1.992 8.404,4.669 0,8.156 -25.341,2.553 -25.341,18.743 0,7.411 5.978,13.574 18.368,13.574 5.481,0 11.083,-1.308 15.13,-3.861 l -3.113,-7.658 c -4.047,2.303 -8.218,3.425 -12.079,3.425 -5.978,0 -8.281,-2.243 -8.281,-4.982 0,-8.032 25.341,-2.49 25.341,-18.493 0,-7.285 -6.039,-13.513 -18.491,-13.513 C 10.835,-5.045 3.861,-2.989 0,0"
             style="fill:#161618;fill-opacity:1;fill-rule:nonzero;stroke:none"
             id="path20" /></g><g
           id="g22"
           transform="translate(84.8745,69.8994)"><path
             d="m 0,0 c -6.39,0 -11.584,5.194 -11.584,11.622 0,6.39 5.194,11.584 11.584,11.584 6.39,0 11.584,-5.194 11.584,-11.584 C 11.584,5.194 6.39,0 0,0 m 0,33.221 c -11.921,0 -21.6,-9.679 -21.6,-21.599 0,-11.959 9.679,-21.638 21.6,-21.638 11.958,0 21.637,9.679 21.637,21.638 0,11.92 -9.679,21.599 -21.637,21.599"
             style="fill:#161618;fill-opacity:1;fill-rule:nonzero;stroke:none"
             id="path24" /></g><g
           id="g26"
           transform="translate(260.5078,69.8994)"><path
             d="m 0,0 c -6.391,0 -11.585,5.194 -11.585,11.622 0,6.39 5.194,11.584 11.585,11.584 6.39,0 11.584,-5.194 11.584,-11.584 C 11.584,5.194 6.39,0 0,0 m 0,33.221 c -11.921,0 -21.6,-9.679 -21.6,-21.599 0,-11.959 9.679,-21.638 21.6,-21.638 11.958,0 21.637,9.679 21.637,21.638 0,11.92 -9.679,21.599 -21.637,21.599"
             style="fill:#161618;fill-opacity:1;fill-rule:nonzero;stroke:none"
             id="path28" /></g><g
           id="g30"
           transform="translate(37.8896,59.8838)"><path
             d="M 0,0 H -3.782 V 10.087 H 0 c 5.461,0 9.903,4.445 9.903,9.904 V 33.222 H -3.782 V 43.309 H 19.993 V 19.991 C 19.993,8.967 11.025,0 0,0"
             style="fill:#161618;fill-opacity:1;fill-rule:nonzero;stroke:none"
             id="path32" /></g><path
           d="M 34.107,69.899 H 24.016 v 23.206 h 10.091 z"
           style="fill:#00a1b0;fill-opacity:1;fill-rule:nonzero;stroke:none"
           id="path34" /><g
           id="g36"
           transform="translate(142.4448,72.6606)"><path
             d="M 0,0 C 0,3.673 -2.803,5.417 -8.032,5.417 H -19.801 V -5.355 H -8.032 C -2.803,-5.355 0,-3.737 0,0 M -19.801,23.039 V 12.766 h 10.024 c 4.92,0 7.598,1.742 7.598,5.167 0,3.425 -2.678,5.106 -7.598,5.106 z m 29.95,-24.097 c 0,-7.534 -5.978,-11.894 -17.433,-11.894 h -22.542 v 43.589 h 21.298 c 10.893,0 16.498,-4.548 16.498,-11.334 0,-4.359 -2.241,-7.721 -5.791,-9.588 4.857,-1.559 7.97,-5.294 7.97,-10.773"
             style="fill:#161618;fill-opacity:1;fill-rule:nonzero;stroke:none"
             id="path38" /></g><g
           id="g40"
           transform="translate(210.5967,95.0771)"><path
             d="M 0,0 H -13.947 V 8.22 H 24.035 V 0 H 10.087 V -35.368 H 0 Z"
             style="fill:#161618;fill-opacity:1;fill-rule:nonzero;stroke:none"
             id="path42" /></g><g
           id="g44"
           transform="translate(308.4326,95.0771)"><path
             d="M 0,0 H -8.222 V -15.194 H 0 c 6.164,0 9.277,2.864 9.277,7.598 C 9.277,-2.803 6.164,0 0,0 m 9.463,-35.368 -8.404,12.141 h -0.5 -8.781 V -35.368 H -18.309 V 8.22 H 0.559 c 11.645,0 18.929,-6.041 18.929,-15.816 0,-6.538 -3.299,-11.334 -8.967,-13.762 l 9.777,-14.01 z"
             style="fill:#161618;fill-opacity:1;fill-rule:nonzero;stroke:none"
             id="path46" /></g><g
           id="g48"
           transform="translate(356.1777,75.1514)"><path
             d="M 0,0 V -15.442 H -10.087 V 0.124 l -16.875,28.022 h 10.711 L -4.605,8.78 7.036,28.146 h 9.901 z"
             style="fill:#161618;fill-opacity:1;fill-rule:nonzero;stroke:none"
             id="path50" /></g></g></g></g></svg>
